<svg width="22" height="20" viewBox="0 0 22 20" fill="none" xmlns="http://www.w3.org/2000/svg">
<path d="M20.1878 6.98902C20.7606 5.51629 18.3926 2.75989 15.7396 1.57378C10.8044 -0.63379 3.26524 1.97016 1.46086 7.45554C0.612284 10.0381 1.06261 13.1726 2.86392 15.493C5.51381 18.9081 10.0661 19.2404 13.0469 18.5208C17.9821 17.3286 20.1051 12.8921 20.5952 11.4164C20.7423 10.9712 21.1344 9.78507 20.6534 9.37649C20.3256 9.10207 19.7528 9.3155 18.9563 9.60822C14.4897 11.2639 13.5554 11.6023 13.3287 12.5262C13.2245 12.9562 13.3409 13.2245 13.0806 13.5446C12.621 14.1026 11.5396 14.1484 10.7707 13.7642C10.0906 13.4257 9.43197 12.6421 9.59434 11.9987C9.73219 11.4529 10.4123 11.1877 10.7248 11.0718C15.3475 9.3399 19.5751 8.56237 20.1847 6.98902H20.1878Z" fill="#231815" stroke="#231815" stroke-miterlimit="10"/>
<path d="M8.22181 8.4952C8.50059 8.66595 8.7763 8.28786 10.066 7.8244C11.0586 7.46765 11.4323 7.50119 11.5579 7.18408C11.7233 6.7633 11.2945 6.12908 10.7982 5.84551C10.066 5.42778 9.04589 5.69001 8.48834 6.31203C7.84195 7.03162 7.81131 8.23908 8.22488 8.4952H8.22181Z" fill="white" stroke="#231815" stroke-miterlimit="10"/>
</svg>
