<svg width="24" height="28" viewBox="0 0 24 28" fill="none" xmlns="http://www.w3.org/2000/svg">
<path d="M9.25074 1.9812C9.18947 1.9934 9.06387 2.02389 8.90764 2.06353C8.90764 2.06353 2.37022 3.85946 0.985535 4.28329C0.636301 4.39001 0.348336 4.50588 0.167592 4.77725C-0.0805485 5.14619 0.00829179 5.60051 0.0511802 5.80175C0.700633 8.89357 3.38729 15.5346 3.40567 17.2604C3.40567 17.3732 3.39954 17.7238 3.63849 17.9434C3.91726 18.1964 4.34615 18.1446 5.19779 18.0196C6.11989 17.8854 6.22711 17.7269 6.26081 17.672C6.41704 17.4037 6.21486 17.0774 6.04637 16.6048C5.88707 16.1627 5.72777 15.5102 5.75227 14.6259C5.80129 14.4552 6.04943 13.6715 6.86431 13.2081C6.97766 13.144 7.8293 12.6775 8.77591 13.0129C9.53871 13.2843 9.92164 13.9216 10.0227 14.1015C10.6354 15.1626 10.3352 16.431 10.856 16.5774C10.8652 16.5774 10.8744 16.5835 10.8897 16.5865C10.9663 16.5957 11.098 16.5499 11.9068 16.3151C13.0035 15.998 12.9851 16.0163 13.0157 15.9919C13.9868 15.2449 11.3768 11.2993 12.4398 10.3297C12.7829 10.0156 13.1536 10.3328 14.1278 9.86624C14.6118 9.6345 15.347 9.28081 15.4634 8.57951C15.5645 7.97273 15.1602 7.32327 14.6332 7.05799C14.2687 6.87505 13.9041 6.92078 13.1903 7.0214C12.7615 7.08239 12.4612 7.15252 12.2407 7.2196C11.4564 7.45438 11.4748 7.40559 11.435 7.3995C11.2267 7.37815 10.5588 7.18911 9.34265 2.37454C9.29976 2.20684 9.26606 2.06963 9.24768 1.9873L9.25074 1.9812Z" fill="#EA5514"/>
<path d="M10.6196 2.20594C10.1111 2.98652 10.5737 4.19092 10.7881 4.73977C11.0271 5.35569 11.2722 5.99296 11.8634 6.3802C13.1531 7.22175 14.547 5.84355 15.5488 6.554C16.4954 7.22785 16.575 9.39883 15.6498 10.2953C14.8258 11.0972 13.628 10.4691 13.0919 11.271C12.7671 11.7558 12.9724 12.4693 13.386 13.8932C13.6923 14.9543 13.8547 15.494 14.3234 15.7563C14.6879 15.9636 15.0892 15.9422 16.3728 15.5825C18.1711 15.0763 19.0717 14.8263 19.9418 14.3018C20.6004 13.9054 21.6634 13.2682 22.4446 12.1095C23.8293 10.0574 23.7864 7.17601 22.6345 4.9837C22.4875 4.70318 21.5 2.4999 19 1.2733C17.5 0.773565 17.4838 0.581367 14.5 0.773462C12.8212 0.880181 10.9566 1.69979 10.6258 2.20594H10.6196Z" fill="#009FE1"/>
<path d="M4.08298 19.4467C4.79064 18.4648 6.75738 19.2302 7.1832 18.3398C7.55081 17.5745 6.21821 16.7451 6.55519 15.495C6.72368 14.8669 7.29042 14.2144 8.00114 14.1473C8.71186 14.0802 9.34906 14.6199 9.64009 15.1382C10.1639 16.0713 9.50223 16.8366 9.93418 17.294C10.5806 17.9831 12.2961 16.4921 13.5031 17.1781C13.883 17.3946 14.0729 17.7452 14.6734 20.7303C15.3381 24.0356 15.2769 24.4442 15.0256 24.807C14.5355 25.5114 13.837 25.3101 11.3403 25.8559C7.92149 26.5999 7.12499 27.4354 6.19064 26.8469C5.72805 26.5542 5.74337 26.2371 4.90398 23.4684C4.00639 20.5138 3.7123 19.965 4.08604 19.4497L4.08298 19.4467Z" fill="#B966A5"/>
</svg>
