<svg width="23" height="22" viewBox="0 0 23 22" fill="none" xmlns="http://www.w3.org/2000/svg">
<path d="M4.61667 1.23567C5.26919 0.958201 5.52346 1.40032 8.47969 2.28457C10.5445 2.90049 11.2062 2.87915 11.5615 3.61704C11.9138 4.35188 11.4696 5.21478 11.295 5.56848C10.6762 6.81557 10.232 8.39807 9.34359 11.5661C9.1077 12.4046 8.96984 13.0266 9.29763 13.5816C9.64074 14.164 10.428 14.5603 11.053 14.3957C11.8464 14.1884 12.1926 13.1638 12.4652 12.3223C14.2849 6.67836 14.3278 5.24832 15.3909 4.76961C16.028 4.48604 17.0206 4.83669 19.0119 5.54409C20.6631 6.12952 21.4933 6.41918 21.8578 7.00157C22.5134 8.04742 21.8731 9.23048 20.5344 13.1151C19.0731 17.3442 19.3887 17.2314 18.8954 17.89C16.9501 20.497 12.7471 21.3446 9.41711 20.5702C4.92914 19.5243 1.58691 15.4263 1.39085 11.7094C1.35102 10.9258 1.51645 11.4258 2.88582 5.45261C3.5077 2.74499 3.70682 1.62291 4.61667 1.23567Z" fill="#231815" stroke="#231815" stroke-miterlimit="10"/>
</svg>
