<svg width="23" height="22" viewBox="0 0 23 22" fill="none" xmlns="http://www.w3.org/2000/svg">
<path d="M6.09618 1.59526C5.78064 1.75687 5.42835 2.10752 4.9627 4.00102C4.56139 5.62925 4.3592 6.44642 4.55832 6.85805C5.29662 8.41311 8.54082 7.58984 8.92069 8.55032C9.57933 10.2151 0.297053 13.9595 0.839285 16.6396C1.15482 18.1977 4.36533 17.2861 11.736 20.0394C13.4148 20.6675 16.0248 21.75 17.2564 20.6523C17.6975 20.259 17.9732 19.5729 18.2183 18.9631C18.5951 18.0239 18.975 17.0848 18.7391 16.3591C18.1754 14.6181 14.4227 15.2279 14.0397 14.0174C13.4148 12.0385 22.645 7.95574 22.0537 6.34275C21.9251 5.9921 21.392 5.92502 20.7364 5.80306C18.6778 5.41887 14.9955 4.15653 7.63404 1.63185C7.33994 1.53123 6.67517 1.2995 6.09618 1.59526Z" fill="#231815" stroke="#231815" stroke-miterlimit="10"/>
</svg>
