<svg width="20" height="14" viewBox="0 0 20 14" fill="none" xmlns="http://www.w3.org/2000/svg">
<path d="M16.3165 0.166672C18.301 1.77814 19.57 4.24274 19.57 7.00089C19.57 9.75904 18.301 12.2206 16.3165 13.8351C16.0015 14.092 15.5398 14.043 15.283 13.7281C15.0261 13.4131 15.075 12.9514 15.39 12.6945C17.0473 11.3491 18.1023 9.30037 18.1023 7.00089C18.1023 4.70141 17.0473 2.65268 15.39 1.30418C15.075 1.04732 15.0292 0.585593 15.283 0.270638C15.5368 -0.0443167 16.0015 -0.090184 16.3165 0.163615V0.166672ZM14.4665 2.44475C15.7875 3.5211 16.6345 5.16314 16.6345 7.00089C16.6345 8.83864 15.7875 10.4807 14.4665 11.557C14.1516 11.8139 13.6898 11.765 13.433 11.45C13.1761 11.1351 13.2251 10.6733 13.54 10.4165C14.5338 9.60921 15.1668 8.37996 15.1668 7.00089C15.1668 5.62182 14.5338 4.39257 13.54 3.58225C13.2251 3.3254 13.1792 2.86367 13.433 2.54871C13.6868 2.23376 14.1516 2.18789 14.4665 2.44169V2.44475ZM12.6165 4.72282C13.274 5.26099 13.699 6.08049 13.699 7.00089C13.699 7.92129 13.274 8.74079 12.6165 9.27896C12.3016 9.53582 11.8399 9.48689 11.583 9.17194C11.3261 8.85698 11.3751 8.39525 11.69 8.1384C12.0203 7.86931 12.2313 7.45956 12.2313 7.00089C12.2313 6.54222 12.0203 6.13247 11.69 5.86032C11.3751 5.60347 11.3292 5.14174 11.583 4.82678C11.8368 4.51183 12.3016 4.46596 12.6165 4.71976V4.72282ZM9.20708 0.237002C9.55873 0.396009 9.78501 0.7446 9.78501 1.12988V12.8719C9.78501 13.2572 9.55873 13.6058 9.20708 13.7648C8.85543 13.9238 8.44263 13.8596 8.15519 13.6027L4.0302 9.93639H1.957C0.877593 9.93639 0 9.0588 0 7.97939V6.02239C0 4.94298 0.877593 4.06539 1.957 4.06539H4.0302L8.15519 0.399066C8.44263 0.14221 8.85543 0.0810536 9.20708 0.237002Z" fill="black"/>
</svg>
