<svg width="11" height="12" viewBox="0 0 11 12" fill="none" xmlns="http://www.w3.org/2000/svg">
<path d="M3.16875 0.414844C3.29531 0.159375 3.55547 0 3.83906 0H6.66094C6.94453 0 7.20469 0.159375 7.33125 0.414844L7.5 0.75H9.75C10.1648 0.75 10.5 1.08516 10.5 1.5C10.5 1.91484 10.1648 2.25 9.75 2.25H0.75C0.335156 2.25 0 1.91484 0 1.5C0 1.08516 0.335156 0.75 0.75 0.75H3L3.16875 0.414844ZM0.75 3H9.75V10.5C9.75 11.3273 9.07734 12 8.25 12H2.25C1.42266 12 0.75 11.3273 0.75 10.5V3ZM3 4.5C2.79375 4.5 2.625 4.66875 2.625 4.875V10.125C2.625 10.3313 2.79375 10.5 3 10.5C3.20625 10.5 3.375 10.3313 3.375 10.125V4.875C3.375 4.66875 3.20625 4.5 3 4.5ZM5.25 4.5C5.04375 4.5 4.875 4.66875 4.875 4.875V10.125C4.875 10.3313 5.04375 10.5 5.25 10.5C5.45625 10.5 5.625 10.3313 5.625 10.125V4.875C5.625 4.66875 5.45625 4.5 5.25 4.5ZM7.5 4.5C7.29375 4.5 7.125 4.66875 7.125 4.875V10.125C7.125 10.3313 7.29375 10.5 7.5 10.5C7.70625 10.5 7.875 10.3313 7.875 10.125V4.875C7.875 4.66875 7.70625 4.5 7.5 4.5Z" fill="black"/>
</svg>
