<svg width="16" height="4" viewBox="0 0 16 4" fill="none" xmlns="http://www.w3.org/2000/svg">
<path d="M0 2C0 1.46957 0.210714 0.960859 0.585786 0.585787C0.960859 0.210714 1.46957 0 2 0C2.53043 0 3.03914 0.210714 3.41421 0.585787C3.78929 0.960859 4 1.46957 4 2C4 2.53043 3.78929 3.03914 3.41421 3.41421C3.03914 3.78929 2.53043 4 2 4C1.46957 4 0.960859 3.78929 0.585786 3.41421C0.210714 3.03914 0 2.53043 0 2ZM5.71429 2C5.71429 1.46957 5.925 0.960859 6.30007 0.585787C6.67515 0.210714 7.18385 0 7.71429 0C8.24472 0 8.75343 0.210714 9.1285 0.585787C9.50357 0.960859 9.71429 1.46957 9.71429 2C9.71429 2.53043 9.50357 3.03914 9.1285 3.41421C8.75343 3.78929 8.24472 4 7.71429 4C7.18385 4 6.67515 3.78929 6.30007 3.41421C5.925 3.03914 5.71429 2.53043 5.71429 2ZM13.4286 0C13.959 0 14.4677 0.210714 14.8428 0.585787C15.2179 0.960859 15.4286 1.46957 15.4286 2C15.4286 2.53043 15.2179 3.03914 14.8428 3.41421C14.4677 3.78929 13.959 4 13.4286 4C12.8981 4 12.3894 3.78929 12.0144 3.41421C11.6393 3.03914 11.4286 2.53043 11.4286 2C11.4286 1.46957 11.6393 0.960859 12.0144 0.585787C12.3894 0.210714 12.8981 0 13.4286 0Z" fill="#9C9C9C"/>
</svg>
