<svg width="17" height="14" viewBox="0 0 17 14" fill="none" xmlns="http://www.w3.org/2000/svg">
<path d="M8.625 1.5C5.30938 1.5 2.575 3.98125 2.175 7.1875C2.46875 7.06875 2.7875 7 3.125 7C3.95312 7 4.625 7.67188 4.625 8.5V12.5C4.625 13.3281 3.95312 14 3.125 14C1.74375 14 0.625 12.8813 0.625 11.5V11V9.5V8C0.625 3.58125 4.20625 0 8.625 0C13.0437 0 16.625 3.58125 16.625 8V9.5V11V11.5C16.625 12.8813 15.5063 14 14.125 14C13.2969 14 12.625 13.3281 12.625 12.5V8.5C12.625 7.67188 13.2969 7 14.125 7C14.4625 7 14.7812 7.06562 15.075 7.1875C14.675 3.98125 11.9406 1.5 8.625 1.5Z" fill="#909090"/>
</svg>
