<svg width="10" height="14" viewBox="0 0 10 14" fill="none" xmlns="http://www.w3.org/2000/svg">
<path d="M4.8125 0C3.36328 0 2.1875 1.17578 2.1875 2.625V7C2.1875 8.44922 3.36328 9.625 4.8125 9.625C6.26172 9.625 7.4375 8.44922 7.4375 7V2.625C7.4375 1.17578 6.26172 0 4.8125 0ZM1.3125 5.90625C1.3125 5.54258 1.01992 5.25 0.65625 5.25C0.292578 5.25 0 5.54258 0 5.90625V7C0 9.43633 1.81016 11.4488 4.15625 11.7687V12.6875H2.84375C2.48008 12.6875 2.1875 12.9801 2.1875 13.3438C2.1875 13.7074 2.48008 14 2.84375 14H4.8125H6.78125C7.14492 14 7.4375 13.7074 7.4375 13.3438C7.4375 12.9801 7.14492 12.6875 6.78125 12.6875H5.46875V11.7687C7.81484 11.4488 9.625 9.43633 9.625 7V5.90625C9.625 5.54258 9.33242 5.25 8.96875 5.25C8.60508 5.25 8.3125 5.54258 8.3125 5.90625V7C8.3125 8.9332 6.7457 10.5 4.8125 10.5C2.8793 10.5 1.3125 8.9332 1.3125 7V5.90625Z" fill="#909090"/>
</svg>
