<svg width="14" height="12" viewBox="0 0 14 12" fill="none" xmlns="http://www.w3.org/2000/svg">
<path d="M10.1223 1.97946L13.4116 5.26875C13.6045 5.46161 13.7143 5.72679 13.7143 6C13.7143 6.27321 13.6045 6.53839 13.4116 6.73125L10.1223 10.0205C9.95089 10.192 9.72054 10.2857 9.47946 10.2857C8.97857 10.2857 8.57143 9.87857 8.57143 9.37768V7.71429H5.14286C4.66875 7.71429 4.28571 7.33125 4.28571 6.85714V5.14286C4.28571 4.66875 4.66875 4.28571 5.14286 4.28571H8.57143V2.62232C8.57143 2.12143 8.97857 1.71429 9.47946 1.71429C9.72054 1.71429 9.95089 1.81071 10.1223 1.97946ZM4.28571 1.71429H2.57143C2.09732 1.71429 1.71429 2.09732 1.71429 2.57143V9.42857C1.71429 9.90268 2.09732 10.2857 2.57143 10.2857H4.28571C4.75982 10.2857 5.14286 10.6688 5.14286 11.1429C5.14286 11.617 4.75982 12 4.28571 12H2.57143C1.15179 12 0 10.8482 0 9.42857V2.57143C0 1.15179 1.15179 0 2.57143 0H4.28571C4.75982 0 5.14286 0.383036 5.14286 0.857143C5.14286 1.33125 4.75982 1.71429 4.28571 1.71429Z" fill="black"/>
</svg>
