<svg width="19" height="14" viewBox="0 0 19 14" fill="none" xmlns="http://www.w3.org/2000/svg">
<path d="M6.88379 0.673236C6.67326 0.16467 6.11821 -0.106018 5.58777 0.0388956L3.18165 0.69511C2.7059 0.826352 2.37506 1.25836 2.37506 1.75052C2.37506 4.68708 3.40859 7.38302 5.13116 9.49111L0.876702 12.8269C0.592343 13.0511 0.540393 13.4639 0.764599 13.7483C0.988806 14.0327 1.40167 14.0846 1.68603 13.8604L17.8726 1.1736C18.157 0.949393 18.209 0.536525 17.9847 0.252165C17.7605 -0.0321942 17.3477 -0.0841445 17.0633 0.140062L7.54274 7.60176C7.05605 7.0139 6.64318 6.36589 6.31234 5.66866L7.66031 4.56677C8.0349 4.26054 8.16341 3.7465 7.97748 3.30083L6.88379 0.67597V0.673236ZM9.53052 9.39541L7.03418 11.3641C9.12039 13.0155 11.7562 13.9998 14.6244 13.9998C15.1165 13.9998 15.5486 13.669 15.6798 13.1933L16.336 10.7871C16.4809 10.2567 16.2102 9.70165 15.7017 9.49111L13.0768 8.39742C12.6311 8.21149 12.1144 8.34 11.8109 8.71459L10.7062 10.0626C10.2961 9.86843 9.90511 9.64696 9.53052 9.39815V9.39541Z" fill="#FF2323"/>
</svg>
