<svg width="15" height="14" viewBox="0 0 15 14" fill="none" xmlns="http://www.w3.org/2000/svg">
<path d="M5.13379 0.673243C4.92325 0.164672 4.36819 -0.106019 3.83775 0.0388961L1.43161 0.695117C0.955845 0.826361 0.625 1.25837 0.625 1.75054C0.625 8.51509 6.10992 14 12.8745 14C13.3666 14 13.7986 13.6692 13.9299 13.1934L14.5861 10.7873C14.731 10.2568 14.4603 9.70175 13.9518 9.49121L11.3269 8.39751C10.8812 8.21158 10.3644 8.34009 10.0609 8.71469L8.95627 10.0627C7.03136 9.15217 5.47283 7.59364 4.56233 5.66873L5.91031 4.56682C6.28491 4.26059 6.41342 3.74655 6.22749 3.30086L5.13379 0.675977V0.673243Z" fill="#00B71E"/>
</svg>
