<svg width="19" height="18" viewBox="0 0 19 18" fill="none" xmlns="http://www.w3.org/2000/svg">
<path d="M9.27675 0C9.60016 0 9.89545 0.182799 10.0361 0.474574L12.4476 5.44178L17.8331 6.23625C18.1495 6.28195 18.4132 6.50342 18.5116 6.80925C18.61 7.11509 18.5292 7.44553 18.3042 7.67052L14.3986 11.5444L15.3196 17.0143C15.3724 17.3307 15.2423 17.6506 14.9787 17.8405C14.715 18.0303 14.3705 18.0514 14.0893 17.9002L9.27323 15.327L4.46422 17.8967C4.17948 18.0479 3.83497 18.0268 3.57483 17.8369C3.3147 17.6471 3.18111 17.3272 3.23384 17.0108L4.15487 11.5409L0.249304 7.67052C0.0208052 7.44553 -0.0565327 7.11157 0.0418974 6.80925C0.140327 6.50693 0.403979 6.28546 0.720362 6.23625L6.10589 5.44178L8.51743 0.474574C8.66156 0.182799 8.95333 0 9.27675 0ZM9.27675 2.77713L7.43118 6.58075C7.30815 6.83034 7.07262 7.00611 6.7949 7.0483L2.63623 7.65997L5.65593 10.6515C5.84927 10.8449 5.94067 11.1191 5.89497 11.3898L5.18135 15.5977L8.87951 13.622C9.1291 13.4884 9.42791 13.4884 9.67398 13.622L13.3721 15.5977L12.662 11.3933C12.6163 11.1226 12.7042 10.8484 12.9011 10.6551L15.9208 7.66348L11.7621 7.0483C11.4879 7.00611 11.2489 6.83386 11.1258 6.58075L9.27675 2.77713Z" fill="black"/>
</svg>
