<svg width="366" height="89" viewBox="0 0 366 89" fill="none" xmlns="http://www.w3.org/2000/svg">
<g clip-path="url(#clip0_271_463)">
<path d="M30.201 5.42001C30.001 5.46001 29.591 5.56001 29.081 5.69001C29.081 5.69001 7.74097 11.58 3.22097 12.97C2.08097 13.32 1.14097 13.7 0.550973 14.59C-0.259027 15.8 0.030973 17.29 0.170973 17.95C2.29097 28.09 11.061 49.87 11.121 55.53C11.121 55.9 11.101 57.05 11.881 57.77C12.791 58.6 14.191 58.43 16.971 58.02C19.981 57.58 20.331 57.06 20.441 56.88C20.951 56 20.291 54.93 19.741 53.38C19.221 51.93 18.701 49.79 18.781 46.89C18.941 46.33 19.751 43.76 22.411 42.24C22.781 42.03 25.561 40.5 28.651 41.6C31.141 42.49 32.391 44.58 32.721 45.17C34.721 48.65 33.741 52.81 35.441 53.29C35.471 53.29 35.501 53.31 35.551 53.32C35.801 53.35 36.231 53.2 38.871 52.43C42.451 51.39 42.391 51.45 42.491 51.37C45.661 48.92 37.141 35.98 40.611 32.8C41.731 31.77 42.941 32.81 46.121 31.28C47.701 30.52 50.101 29.36 50.481 27.06C50.811 25.07 49.491 22.94 47.771 22.07C46.581 21.47 45.391 21.62 43.061 21.95C41.661 22.15 40.681 22.38 39.961 22.6C37.401 23.37 37.461 23.21 37.331 23.19C36.651 23.12 34.471 22.5 30.501 6.71001C30.361 6.16001 30.251 5.71001 30.191 5.44001L30.201 5.42001Z" fill="#EA5514"/>
<path d="M34.6707 5.25999C33.0107 7.81999 34.5207 11.77 35.2207 13.57C36.0007 15.59 36.8007 17.68 38.7307 18.95C42.9407 21.71 47.4907 17.19 50.7607 19.52C53.8507 21.73 54.1107 28.85 51.0907 31.79C48.4007 34.42 44.4907 32.36 42.7407 34.99C41.6807 36.58 42.3507 38.92 43.7007 43.59C44.7007 47.07 45.2307 48.84 46.7607 49.7C47.9507 50.38 49.2607 50.31 53.4507 49.13C59.3207 47.47 62.2607 46.65 65.1007 44.93C67.2507 43.63 70.7207 41.54 73.2707 37.74C77.7907 31.01 77.6507 21.56 73.8907 14.37C73.4107 13.45 69.6907 6.59999 61.6707 3.30999C57.9307 1.77999 53.0707 2.08999 43.3307 2.71999C37.8507 3.06999 35.7707 3.59999 34.6907 5.25999H34.6707Z" fill="#009FE1"/>
<path d="M13.329 62.7C15.639 59.48 22.059 61.99 23.449 59.07C24.649 56.56 20.299 53.84 21.399 49.74C21.949 47.68 23.799 45.54 26.119 45.32C28.439 45.1 30.519 46.87 31.469 48.57C33.179 51.63 31.019 54.14 32.429 55.64C34.539 57.9 40.139 53.01 44.079 55.26C45.319 55.97 45.939 57.12 47.899 66.91C50.069 77.75 49.869 79.09 49.049 80.28C47.449 82.59 45.169 81.93 37.019 83.72C25.859 86.16 23.259 88.9 20.209 86.97C18.699 86.01 18.749 84.97 16.009 75.89C13.079 66.2 12.119 64.4 13.339 62.71L13.329 62.7Z" fill="#B966A5"/>
<path d="M83.6209 23.73C85.7509 22.82 86.5809 24.27 96.2309 27.17C102.971 29.19 105.131 29.12 106.291 31.54C107.441 33.95 105.991 36.78 105.421 37.94C103.401 42.03 101.951 47.22 99.0509 57.61C98.2809 60.36 97.8309 62.4 98.9009 64.22C100.021 66.13 102.591 67.43 104.631 66.89C107.221 66.21 108.351 62.85 109.241 60.09C115.181 41.58 115.321 36.89 118.791 35.32C120.871 34.39 124.111 35.54 130.611 37.86C136.001 39.78 138.711 40.73 139.901 42.64C142.041 46.07 139.951 49.95 135.581 62.69C130.811 76.56 131.841 76.19 130.231 78.35C123.881 86.9 110.161 89.68 99.2909 87.14C84.6409 83.71 73.7309 70.27 73.0909 58.08C72.9609 55.51 73.5009 57.15 77.9709 37.56C80.0009 28.68 80.6509 25 83.6209 23.73Z" fill="#231815" stroke="#231815" stroke-miterlimit="10"/>
<path d="M131.71 15.08C131.11 16.07 130.74 17.65 132.73 23.74C134.44 28.97 135.29 31.59 136.55 32.4C141.29 35.46 148.87 27.58 151.58 29.6C156.29 33.11 137.02 59.52 143.17 66.05C146.74 69.85 154.06 61.78 179.27 56.75C185.01 55.6 194.13 54.13 195.64 48.95C196.18 47.09 195.76 44.71 195.39 42.58C194.81 39.32 194.23 36.04 192.33 34.43C187.76 30.55 178.4 38.71 175.24 36C170.08 31.56 188.61 4.29 184.18 0.819998C183.21 0.059998 181.62 0.799998 179.6 1.58C173.23 4.06 160.83 6.88 136.05 12.53C135.06 12.76 132.81 13.26 131.72 15.08H131.71Z" fill="#231815" stroke="#231815" stroke-miterlimit="10"/>
<path d="M202.7 18.35C201.67 18.88 200.52 20.03 199 26.24C197.69 31.58 197.03 34.26 197.68 35.61C200.09 40.71 210.68 38.01 211.92 41.16C214.07 46.62 183.77 58.9 185.54 67.69C186.57 72.8 197.05 69.81 221.11 78.84C226.59 80.9 235.11 84.45 239.13 80.85C240.57 79.56 241.47 77.31 242.27 75.31C243.5 72.23 244.74 69.15 243.97 66.77C242.13 61.06 229.88 63.06 228.63 59.09C226.59 52.6 256.72 39.21 254.79 33.92C254.37 32.77 252.63 32.55 250.49 32.15C243.77 30.89 231.75 26.75 207.72 18.47C206.76 18.14 204.59 17.38 202.7 18.35Z" fill="#231815" stroke="#231815" stroke-miterlimit="10"/>
<path d="M260.779 3.55C262.559 2.61 265.629 2.13 269.019 1.79C273.779 1.59 279.989 0.259998 282.939 3.34C284.009 4.72 284.229 6.83 284.439 8.75C285.699 22.75 288.809 58.92 290.199 74.85C291.479 84.27 288.779 84.94 279.759 85.76C275.009 85.8 267.199 87.44 265.429 82.33C262.809 65.06 261.059 35.9 258.729 14.08C258.319 8.38 257.499 5.43 260.679 3.6L260.779 3.55Z" fill="#231815" stroke="#231815" stroke-miterlimit="10"/>
<path d="M356.421 36.04C358.291 31.21 350.561 22.17 341.901 18.28C325.791 11.04 301.181 19.58 295.291 37.57C292.521 46.04 293.991 56.32 299.871 63.93C308.521 75.13 323.381 76.22 333.111 73.86C349.221 69.95 356.151 55.4 357.751 50.56C358.231 49.1 359.511 45.21 357.941 43.87C356.871 42.97 355.001 43.67 352.401 44.63C337.821 50.06 334.771 51.17 334.031 54.2C333.691 55.61 334.071 56.49 333.221 57.54C331.721 59.37 328.191 59.52 325.681 58.26C323.461 57.15 321.311 54.58 321.841 52.47C322.291 50.68 324.511 49.81 325.531 49.43C340.621 43.75 354.421 41.2 356.411 36.04H356.421Z" fill="#231815" stroke="#231815" stroke-miterlimit="10"/>
<path d="M317.361 40.98C318.271 41.54 319.171 40.3 323.381 38.78C326.621 37.61 327.841 37.72 328.251 36.68C328.791 35.3 327.391 33.22 325.771 32.29C323.381 30.92 320.051 31.78 318.231 33.82C316.121 36.18 316.021 40.14 317.371 40.98H317.361Z" fill="white" stroke="#231815" stroke-miterlimit="10"/>
</g>
<defs>
<clipPath id="clip0_271_463">
<rect width="365.6" height="88.55" fill="white"/>
</clipPath>
</defs>
</svg>
